<?xml version="1.0" encoding="UTF-8" standalone="no"?>
<!DOCTYPE svg PUBLIC "-//W3C//DTD SVG 1.1//EN" "http://www.w3.org/Graphics/SVG/1.1/DTD/svg11.dtd">
<svg width="100%" height="100%" viewBox="0 0 89 30" version="1.1" xmlns="http://www.w3.org/2000/svg" xmlns:xlink="http://www.w3.org/1999/xlink" xml:space="preserve" style="fill-rule:evenodd;clip-rule:evenodd;stroke-linejoin:round;stroke-miterlimit:1.41421;">
    <g transform="matrix(1,0,0,1,0.1,-29.25)">
        <path d="M88.1,29.25L88.1,58.75L-0.1,58.75L-0.1,29.25L88.1,29.25ZM29.3,39.85C29.3,38.45 30.5,37.95 31.6,37.95C33.2,37.95 34.8,38.55 35.9,39.15L35.9,37.45C35.4,37.35 33.7,36.95 31.9,36.95C28.8,36.95 26.9,38.25 26.8,40.55C26.6,45.15 34.2,44.85 34.2,47.95C34.2,49.45 33.1,50.25 31.4,50.25C29.8,50.25 28.2,49.55 27.1,48.75L27.1,50.65C27.6,50.95 29.3,51.35 31.1,51.35C34.2,51.35 36.9,50.35 36.8,47.25C36.6,42.65 29.3,43.05 29.3,39.85ZM49.8,44.35C49.797,44.357 49.299,45.653 48.8,46.75C47.5,45.45 46.3,44.15 45.4,43.25C46.8,42.45 48.8,41.55 48.8,39.55C48.8,38.25 47.7,36.85 45.2,36.85C43.3,36.85 42,38.25 41.9,39.75C41.8,40.95 42.4,41.75 43.1,42.55C43.2,42.65 43.5,42.95 43.7,43.25C41.6,44.45 40.4,45.85 40.4,47.55C40.3,49.55 42,51.25 44.8,51.25C46.7,51.25 48.2,50.35 49.1,48.85C50.3,50.05 51.1,50.95 51.1,50.95L52.8,50.95C52.1,50.05 50.9,48.95 49.7,47.75C50,47.15 50.6,45.95 51.2,44.35L49.8,44.35ZM23.4,37.15L19.9,37.15L15.9,48.15L11.8,37.15L6.9,37.15C8.1,37.65 8.8,38.55 8.8,40.15L8.8,50.85L10.2,50.85L10.2,38.85L14.6,50.85L16.2,50.85L20.7,38.75L20.7,50.95L23.4,50.95L23.4,37.15ZM61.7,37.15L57.3,37.15C58.3,37.55 59.2,38.55 58.9,39.45C58.6,40.25 54.2,50.95 54.2,50.95L55.6,50.95L57.3,46.75L63.2,46.75L65,50.95L67.6,50.95L61.7,37.15ZM73.9,37.15L68,37.15C69.2,37.65 69.9,38.55 69.9,40.15L69.9,50.85L73.9,50.85C78.2,50.85 81.4,49.75 81.4,43.95C81.4,38.25 78.2,37.15 73.9,37.15ZM48.2,48.05C47.5,49.45 46.7,50.35 45,50.35C43,50.35 41.8,49.05 41.8,47.25C41.9,45.55 43.2,44.65 44.5,43.85C45.6,44.95 47,46.45 48.3,47.85C48.201,47.949 48.2,48.048 48.2,48.05ZM74.1,49.85L72.3,49.85L72.3,38.25L74.1,38.25C77.7,38.25 78.7,40.45 78.7,44.05C78.8,47.65 77.8,49.85 74.1,49.85ZM62.8,45.65L57.8,45.65L60.2,39.55L62.8,45.65ZM43.2,39.75C43.3,38.65 44,37.75 45.3,37.75C46.6,37.75 47.5,38.55 47.5,39.75C47.5,41.15 46.5,41.85 44.8,42.75C44.7,42.65 44.6,42.55 44.6,42.45C43.6,41.45 43.1,40.75 43.2,39.75Z" style="fill:white;"/>
    </g>
</svg>
