<?xml version="1.0" encoding="UTF-8" standalone="no"?>
<!DOCTYPE svg PUBLIC "-//W3C//DTD SVG 1.1//EN" "http://www.w3.org/Graphics/SVG/1.1/DTD/svg11.dtd">
<svg width="100%" height="100%" viewBox="0 0 134 57" version="1.1" xmlns="http://www.w3.org/2000/svg" xmlns:xlink="http://www.w3.org/1999/xlink" xml:space="preserve" style="fill-rule:evenodd;clip-rule:evenodd;stroke-linejoin:round;stroke-miterlimit:1.41421;">
    <path d="M32.502,29.156L28.13,29.156L30.326,22.303L32.502,29.156ZM38.41,36.206L32.654,19.688L28.11,19.688L22.377,36.207L25.913,36.207L27.231,32.121L33.447,32.121L34.787,36.207L38.41,36.206ZM5.262,38.844L3.615,38.844L3.615,55.362L6.908,55.362L6.908,38.843L5.262,38.844Z" style="fill:white;fill-rule:nonzero;"/>
    <g transform="matrix(0.28062,0,0,-0.28062,-9.82,196.268)">
        <clipPath id="_clip1">
            <path d="M36.85,497.949L508.302,497.949L508.302,697.52L36.85,697.52L36.85,497.949Z"/>
        </clipPath>
        <g clip-path="url(#_clip1)">
            <path d="M75.81,544.782L64.618,544.782L64.618,502.126L76.363,502.126L76.363,524.197C76.363,532.727 78.862,536.719 84.267,536.719C86.772,536.719 88.885,535.543 90.056,533.669C90.841,532.26 91.075,530.849 91.075,527.171L91.075,502.126L102.814,502.126L102.814,526.311C102.814,533.904 102.346,536.643 100.624,539.384C98.042,543.454 93.656,545.718 88.259,545.718C83.013,545.718 78.552,543.453 75.812,539.46L75.81,544.782ZM143.045,531.163C143.121,540.477 136.47,546.033 125.042,546.033C114.007,546.033 106.963,540.711 106.963,532.491C106.963,529.365 108.293,526.233 110.64,524.119C113.303,521.69 116.12,520.595 123.947,518.949C129.737,517.703 131.851,516.293 131.851,513.629C131.851,511.129 129.268,509.484 125.358,509.484C120.423,509.484 117.841,511.832 117.922,516.37L105.944,516.37C106.102,506.428 113.069,500.872 125.277,500.872C136.863,500.872 144.064,506.195 144.064,514.724C144.064,521.223 140.229,525.139 131.775,527.329L123.32,529.518C120.112,530.38 118.701,531.556 118.701,533.435C118.701,536.017 120.896,537.58 124.574,537.58C129.345,537.58 131.306,535.782 131.54,531.164L143.045,531.163ZM169.952,544.782L163.067,544.782L163.067,555.114L151.323,555.114L151.323,544.782L145.064,544.782L145.064,535.935L151.324,535.935L151.324,516.37C151.324,510.733 151.792,508.31 153.436,505.885C155.627,502.595 158.841,501.185 164.08,501.185C166.51,501.185 167.762,501.341 169.952,501.892L169.952,510.656C168.542,510.499 168.073,510.423 167.528,510.423C164.314,510.423 163.068,512.219 163.068,516.839L163.068,535.936L169.952,535.936L169.952,544.782ZM180.47,560.986L174.598,560.986L174.598,549.717L186.342,549.717L186.342,560.986L180.47,560.986ZM180.47,544.787L174.598,544.787L174.598,502.124L186.342,502.124L186.342,544.787L180.47,544.787ZM215.309,544.782L208.424,544.782L208.424,555.114L196.679,555.114L196.679,544.782L190.421,544.782L190.421,535.935L196.679,535.935L196.679,516.37C196.679,510.733 197.149,508.31 198.793,505.885C200.983,502.595 204.197,501.185 209.437,501.185C211.867,501.185 213.119,501.341 215.309,501.892L215.309,510.656C213.898,510.499 213.429,510.423 212.885,510.423C209.671,510.423 208.424,512.219 208.424,516.839L208.424,535.936L215.309,535.936L215.309,544.782ZM247.467,502.124L258.661,502.124L258.661,544.78L246.916,544.78L246.916,522.709C246.916,518.089 246.531,515.742 245.353,513.863C243.942,511.515 241.595,510.187 239.013,510.187C236.508,510.187 234.393,511.28 233.223,513.236C232.439,514.647 232.203,516.058 232.203,519.735L232.203,544.78L220.465,544.78L220.465,520.596C220.465,513.002 220.934,510.263 222.655,507.522C225.237,503.453 229.699,501.188 235.02,501.188C240.19,501.188 244.65,503.453 247.467,507.446L247.467,502.124ZM287.532,544.782L280.647,544.782L280.647,555.114L268.902,555.114L268.902,544.782L262.644,544.782L262.644,535.935L268.902,535.935L268.902,516.37C268.902,510.733 269.371,508.31 271.016,505.885C273.206,502.595 276.42,501.185 281.659,501.185C284.089,501.185 285.341,501.341 287.532,501.892L287.532,510.656C286.121,510.499 285.652,510.423 285.108,510.423C281.894,510.423 280.647,512.219 280.647,516.839L280.647,535.936L287.532,535.936L287.532,544.782Z" style="fill:white;fill-rule:nonzero;"/>
        </g>
    </g>
    <g transform="matrix(0.28062,0,0,-0.28062,-9.82,196.268)">
        <clipPath id="_clip2">
            <path d="M36.878,500.872L508.302,500.872L508.302,697.521L36.878,697.521L36.878,500.872Z"/>
        </clipPath>
        <g clip-path="url(#_clip2)">
            <path d="M320.3,528.424L302.064,528.424C303,534.214 306.208,537.189 311.377,537.189C316.542,537.189 320.065,533.669 320.3,528.424M332.431,522.71C332.431,537.036 324.369,546.035 311.453,546.035C298.696,546.035 290.085,537.035 290.085,523.728C290.085,509.795 298.539,500.873 311.846,500.873C322.414,500.873 329.691,505.883 332.355,515.117L319.908,515.117C318.655,511.75 315.991,510.029 312.08,510.029C306.132,510.029 302.456,513.629 302.14,519.893L332.355,519.893C332.431,521.147 332.431,522.242 332.431,522.71M62.092,697.519L36.85,697.519L36.85,687.184L55.948,687.184L55.948,638.663L68.313,638.663L68.313,687.185L87.335,687.185L87.335,697.519L62.092,697.519Z" style="fill:white;fill-rule:nonzero;"/>
        </g>
    </g>
    <g transform="matrix(0.28062,0,0,-0.28062,-9.82,196.268)">
        <clipPath id="_clip3">
            <path d="M36.85,497.949L508.302,497.949L508.302,697.52L36.85,697.52L36.85,497.949Z"/>
        </clipPath>
        <g clip-path="url(#_clip3)">
            <path d="M90.585,638.658L102.323,638.658L102.323,659.635C102.323,668.792 104.91,673.177 110.309,673.177C115.239,673.177 117.119,670.436 117.119,663.47L117.119,638.658L128.857,638.658L128.857,664.722C128.857,671.298 127.919,674.664 125.414,677.556C122.908,680.454 118.606,682.333 114.378,682.333C109.84,682.333 105.378,680.062 102.323,676.227L102.323,697.52L90.585,697.52L90.585,638.658ZM162.323,664.957L144.086,664.957C145.022,670.747 148.231,673.721 153.4,673.721C158.564,673.721 162.088,670.202 162.323,664.957M174.453,659.243C174.453,673.569 166.392,682.568 153.476,682.568C140.72,682.568 132.108,673.569 132.108,660.262C132.108,646.327 140.562,637.405 153.868,637.405C164.437,637.405 171.714,642.416 174.377,651.65L161.93,651.65C160.677,648.284 158.013,646.562 154.102,646.562C148.154,646.562 144.477,650.163 144.161,656.426L174.376,656.426C174.452,657.68 174.452,658.775 174.452,659.243M174.565,570.383L186.304,570.383L186.304,629.246L174.565,629.246L174.565,601.473L174.565,570.383ZM218.662,589.797C218.662,582.127 215.22,577.743 209.19,577.743C205.436,577.743 202.773,579.855 202.773,582.749C202.773,586.039 205.671,587.683 213.025,588.854L217.099,589.482C217.251,589.562 217.802,589.639 218.662,589.797M229.697,589.013C229.774,592.145 229.774,594.023 229.774,594.961C229.774,602.864 228.837,606.231 225.63,609.363C222.497,612.571 217.567,614.293 211.385,614.293C199.956,614.293 192.756,608.813 192.206,599.656L204.26,599.656C204.494,603.883 206.924,605.996 211.62,605.996C216.472,605.996 218.586,603.415 218.662,597.39C213.498,597.074 206.532,596.055 202.697,595.038C194.554,593.082 190.56,588.854 190.56,582.362C190.56,574.769 196.901,569.447 206.064,569.447C212.948,569.447 217.251,571.713 220.384,576.957L220.384,575.237C220.384,573.592 220.46,572.731 220.776,570.383L230.876,570.383C230.014,573.983 229.697,578.211 229.697,585.02L229.697,589.013ZM246.736,613.041L235.542,613.041L235.542,570.385L247.287,570.385L247.287,592.456C247.287,600.987 249.786,604.98 255.19,604.98C257.695,604.98 259.809,603.802 260.98,601.93C261.764,600.518 261.999,599.107 261.999,595.43L261.999,570.385L273.738,570.385L273.738,594.57C273.738,602.163 273.269,604.904 271.548,607.643C268.966,611.713 264.58,613.977 259.182,613.977C253.937,613.977 249.475,611.713 246.736,607.719L246.736,613.041ZM310.353,570.384L322.718,570.384L322.718,618.912L341.738,618.912L341.738,629.246L291.255,629.246L291.255,618.912L310.353,618.912L310.353,570.384Z" style="fill:white;fill-rule:nonzero;"/>
            <path d="M359.434,570.384L370.628,570.384L370.628,613.04L358.883,613.04L358.883,590.969C358.883,586.349 358.498,584.001 357.32,582.122C355.91,579.775 353.562,578.447 350.98,578.447C348.474,578.447 346.36,579.54 345.19,581.497C344.405,582.906 344.171,584.317 344.171,587.995L344.171,613.04L332.432,613.04L332.432,588.855C332.432,581.262 332.902,578.523 334.622,575.782C337.204,571.712 341.666,569.448 346.987,569.448C352.157,569.448 356.618,571.712 359.434,575.706L359.434,570.384ZM376.567,570.384L388.305,570.384L388.305,589.247C388.305,599.733 391.438,603.807 399.423,603.807C400.675,603.807 401.455,603.726 402.707,603.416L402.707,613.591C401.612,613.983 400.911,614.059 399.581,614.059C394.254,614.059 390.027,611.712 387.761,607.485L387.761,613.04L376.567,613.04L376.567,570.384ZM407.605,617.975L419.343,617.975L419.343,629.246L407.605,629.246L407.605,623.61L407.605,617.975ZM419.343,613.041L407.605,613.041L407.605,570.383L419.343,570.383L419.343,613.041ZM437.112,613.041L425.918,613.041L425.918,570.385L437.663,570.385L437.663,592.456C437.663,600.987 440.163,604.98 445.567,604.98C448.071,604.98 450.185,603.802 451.356,601.93C452.14,600.518 452.375,599.107 452.375,595.43L452.375,570.385L464.114,570.385L464.114,594.57C464.114,602.163 463.646,604.904 461.924,607.643C459.342,611.713 454.957,613.977 449.558,613.977C444.313,613.977 439.852,611.713 437.112,607.719L437.112,613.041ZM496.95,592.611C496.95,585.802 493.508,581.265 488.42,581.265C483.332,581.265 480.048,585.879 480.048,593.003C480.048,599.971 483.49,604.743 488.502,604.743C493.665,604.743 496.95,600.047 496.95,592.611M508.302,579.228L508.302,613.038L497.735,613.038L497.735,607.716C494.527,612.178 490.926,614.057 485.839,614.057C475.353,614.057 467.993,605.292 467.993,592.927C467.993,580.405 474.878,572.102 485.213,572.102C490.693,572.102 494.135,573.829 497.266,578.052L497.266,573.59C497.266,565.844 494.684,562.478 488.812,562.478C484.585,562.478 481.693,564.592 481.453,567.876L469.791,567.876C470.575,559.269 477.619,554.182 488.654,554.182C498.909,554.182 505.249,558.328 507.441,566.547C508.223,569.603 508.302,570.774 508.302,579.228" style="fill:white;fill-rule:nonzero;"/>
        </g>
    </g>
</svg>
