<?xml version="1.0" encoding="UTF-8" standalone="no"?>
<!DOCTYPE svg PUBLIC "-//W3C//DTD SVG 1.1//EN" "http://www.w3.org/Graphics/SVG/1.1/DTD/svg11.dtd">
<svg width="100%" height="100%" viewBox="0 0 237 73" version="1.1" xmlns="http://www.w3.org/2000/svg" xmlns:xlink="http://www.w3.org/1999/xlink" xml:space="preserve" style="fill-rule:evenodd;clip-rule:evenodd;stroke-linejoin:round;stroke-miterlimit:1.41421;">
    <g transform="matrix(1,0,0,1,-0.01,0.0194786)">
        <g transform="matrix(1,0,0,1,-493.73,-360)">
            <path d="M636.75,361.78L652.6,361.78L652.6,368.09C656.636,362.911 662.875,359.914 669.44,360C676.69,359.885 683.456,363.72 687.08,370C692.74,361.91 701.32,360 707.3,360C715.55,360 722.83,363.88 726.72,370.68C728.01,372.95 730.28,377.96 730.28,387.83L730.28,429.9L714.42,429.9L714.42,392.36C714.42,384.76 713.61,381.68 712.96,380.23C711.96,377.64 709.56,374.23 703.9,374.23C700.153,374.298 696.658,376.159 694.51,379.23C691.76,383.11 691.44,388.94 691.44,394.76L691.44,429.9L675.58,429.9L675.58,392.36C675.58,384.76 674.77,381.68 674.12,380.23C673.12,377.64 670.72,374.23 665.06,374.23C661.316,374.3 657.825,376.161 655.68,379.23C652.93,383.11 652.6,388.94 652.6,394.76L652.6,429.9L636.75,429.9L636.75,361.78ZM581.85,361.78L597.71,361.78L597.71,367.93C599.605,365.702 601.843,363.792 604.34,362.27C607.304,360.63 610.666,359.844 614.05,360C618.423,359.9 622.739,361.022 626.51,363.24L620,377.64C617.608,376.037 614.789,375.191 611.91,375.21C608.51,375.21 605.11,375.69 602.04,378.93C597.67,383.62 597.67,390.09 597.67,394.62L597.67,429.9L581.86,429.9L581.85,361.78ZM509.9,396.08C509.9,407.89 517.34,417.76 528.83,417.76C538.83,417.76 548.08,410.48 548.08,396.24C548.08,381.35 538.86,374.24 528.83,374.24C517.34,374.24 509.9,383.95 509.9,396.08M547.11,361.78L563,361.78L563,429.9L547.12,429.9L547.12,422.78C542.053,428.745 534.566,432.132 526.74,432C505.74,432 493.74,414.53 493.74,395.76C493.74,373.59 508.95,360 526.91,360C534.808,359.831 542.331,363.442 547.14,369.71L547.11,361.78Z" style="fill:white;fill-rule:nonzero;"/>
        </g>
    </g>
</svg>
