<?xml version="1.0" encoding="UTF-8" standalone="no"?>
<!DOCTYPE svg PUBLIC "-//W3C//DTD SVG 1.1//EN" "http://www.w3.org/Graphics/SVG/1.1/DTD/svg11.dtd">
<svg width="100%" height="100%" viewBox="0 0 400 248" version="1.1" xmlns="http://www.w3.org/2000/svg" xmlns:xlink="http://www.w3.org/1999/xlink" xml:space="preserve" style="fill-rule:evenodd;clip-rule:evenodd;stroke-linejoin:round;stroke-miterlimit:1.41421;">
    <g transform="matrix(1,0,0,1,-0.0003,-76.3092)">
        <g>
            <g opacity="0.300003">
                <clipPath id="_clip1">
                    <rect x="0" y="76.31" width="400" height="247.38"/>
                </clipPath>
                <g clip-path="url(#_clip1)">
                    <path d="M315.548,135.557C293.811,100.023 254.669,76.31 209.966,76.31C151.185,76.31 102.025,117.307 89.432,172.254C85.171,171.514 80.797,171.046 76.309,171.046C34.15,171.046 0,205.217 0,247.366C0,289.519 34.15,323.691 76.309,323.691C99.275,323.691 119.835,313.493 133.821,297.435C154.808,313.868 181.234,323.691 209.966,323.691C228.26,323.691 245.603,319.676 261.238,312.552C274.469,319.64 289.601,323.691 305.664,323.691C357.769,323.691 400,281.465 400,229.366C400,180.607 363.002,140.494 315.548,135.557" style="fill-rule:nonzero;"/>
                </g>
            </g>
        </g>
        <path d="M88.88,168.256C100.989,115.584 148.159,76.309 204.498,76.309C247.373,76.309 284.946,99.052 305.796,133.135C351.306,137.874 386.791,176.347 386.791,223.115C386.791,273.081 346.281,313.584 296.315,313.584C280.906,313.584 266.395,309.732 253.693,302.937C238.705,309.775 222.046,313.584 204.498,313.584C176.97,313.584 151.63,304.207 131.501,288.472C118.082,303.861 98.333,313.584 76.309,313.584C35.872,313.584 3.109,280.813 3.109,240.38C3.109,199.962 35.872,167.181 76.309,167.181C80.596,167.181 84.796,167.549 88.88,168.256Z" style="fill:rgb(255,136,0);"/>
        <path d="M93.416,183.897C105.017,133.472 150.148,95.854 204.092,95.854C245.138,95.854 281.1,117.634 301.051,150.263C342.255,154.549 374.821,187.729 378.273,229.165C374.571,273.615 337.394,308.537 291.986,308.537C277.237,308.537 263.351,304.846 251.2,298.335C236.849,304.887 220.897,308.537 204.092,308.537C177.73,308.537 153.474,299.554 134.206,284.483C121.355,299.222 102.44,308.537 81.356,308.537C45.099,308.537 15.266,281.003 11.627,245.705C15.266,210.403 45.099,182.863 81.356,182.863C85.468,182.863 89.497,183.217 93.416,183.897Z" style="fill:white;"/>
        <path d="M90.753,202.194L90.753,202.194C90.609,199.801 90.502,197.388 90.502,194.949C90.502,191.096 90.694,187.287 91.069,183.532C87.895,183.091 84.652,182.863 81.356,182.863C45.099,182.863 15.266,210.403 11.627,245.705C11.416,243.32 11.267,240.905 11.267,238.448C11.267,199.743 42.641,168.357 81.356,168.357C85.459,168.357 89.48,168.71 93.39,169.387C104.986,118.963 150.147,81.356 204.092,81.356C245.138,81.356 281.108,103.136 301.068,135.77C344.646,140.308 378.637,177.14 378.637,221.917C378.637,224.363 378.468,226.765 378.273,229.165C375.048,190.456 346.416,158.952 309.069,151.479C314.622,164.869 317.687,179.552 317.687,194.949C317.687,197.388 317.574,199.801 317.43,202.194L317.43,202.194L317.43,202.194L317.428,202.171L317.401,201.751L317.39,201.585L317.384,201.499L317.379,201.427C317.365,201.229 317.351,201.031 317.336,200.834L317.334,200.805L317.328,200.727L317.305,200.422L317.287,200.205L317.28,200.113L317.276,200.058C317.26,199.862 317.243,199.667 317.226,199.472L317.222,199.421L317.214,199.329L317.193,199.098L317.168,198.818L317.16,198.731L317.156,198.696C317.138,198.501 317.119,198.306 317.1,198.111L317.093,198.042L317.084,197.952L317.067,197.778L317.028,197.405L317.023,197.354L317.022,197.341C317.001,197.145 316.98,196.948 316.958,196.752L316.948,196.668L316.939,196.59C316.918,196.395 316.895,196.2 316.873,196.006L316.87,195.982L316.861,195.908L316.823,195.588L316.798,195.392L316.787,195.298L316.779,195.237C316.755,195.045 316.731,194.853 316.706,194.661L316.7,194.615L316.688,194.522L316.656,194.28L316.622,194.026L316.609,193.934L316.604,193.892C316.578,193.7 316.551,193.509 316.524,193.318L316.515,193.253L316.501,193.16L316.475,192.977L316.426,192.643L316.416,192.574L316.413,192.554C316.384,192.362 316.355,192.17 316.325,191.978L316.313,191.896L316.3,191.814C316.27,191.622 316.24,191.43 316.209,191.238L316.206,191.22L316.195,191.155L316.14,190.815L316.111,190.637L316.095,190.545L316.084,190.478C316.052,190.289 316.02,190.1 315.987,189.911L315.981,189.871L315.964,189.779L315.92,189.525L315.879,189.293L315.862,189.199L315.853,189.151C315.819,188.963 315.785,188.775 315.75,188.588L315.739,188.528L315.721,188.433L315.685,188.239L315.628,187.937L315.613,187.858L315.607,187.831C315.571,187.643 315.534,187.455 315.497,187.267L315.482,187.19L315.465,187.104L315.436,186.959L315.352,186.543L315.348,186.523L315.337,186.471L315.262,186.108L315.228,185.947L315.209,185.857L315.194,185.786C315.155,185.6 315.115,185.414 315.075,185.228L315.067,185.193L315.048,185.105L314.989,184.837L314.942,184.626L314.921,184.531L314.909,184.478C314.868,184.293 314.826,184.109 314.784,183.924L314.771,183.869L314.749,183.774L314.702,183.57L314.638,183.297L314.618,183.21L314.61,183.177C314.566,182.993 314.522,182.808 314.477,182.624L314.46,182.552L314.438,182.463L314.401,182.309L314.31,181.942L314.299,181.895L314.29,181.861L314.192,181.472L314.155,181.327L314.133,181.24L314.114,181.164C314.067,180.981 314.02,180.798 313.972,180.615L313.964,180.586L313.942,180.502L313.868,180.22L313.817,180.029L313.792,179.934L313.776,179.875C313.727,179.695 313.678,179.514 313.629,179.333L313.615,179.283L313.588,179.187L313.53,178.974L313.461,178.727L313.435,178.634L313.424,178.595C313.373,178.415 313.322,178.235 313.27,178.056L313.251,177.987L313.224,177.894L313.178,177.733L313.083,177.409L313.063,177.341L313.058,177.322C313.005,177.142 312.951,176.961 312.897,176.781L312.872,176.696L312.847,176.615C312.793,176.436 312.739,176.257 312.684,176.079L312.676,176.054L312.651,175.972L312.561,175.679L312.508,175.509L312.478,175.412L312.457,175.347C312.402,175.171 312.346,174.995 312.29,174.82L312.275,174.773L312.243,174.674L312.172,174.454L312.101,174.235L312.069,174.135L312.053,174.088C311.996,173.914 311.939,173.74 311.881,173.566L311.859,173.499L311.826,173.401L311.771,173.235L311.675,172.952L311.646,172.864L311.636,172.838C311.577,172.664 311.518,172.49 311.457,172.316L311.428,172.232L311.397,172.143L311.356,172.023L311.219,171.633L311.208,171.6L311.178,171.518L311.072,171.218L311.019,171.07L310.983,170.971L310.957,170.897C310.895,170.727 310.834,170.557 310.772,170.388L310.755,170.343L310.716,170.237L310.635,170.016L310.564,169.825L310.524,169.717L310.503,169.661C310.44,169.493 310.377,169.326 310.314,169.159L310.289,169.093L310.248,168.985L310.185,168.82L310.091,168.576L310.05,168.47L310.036,168.433C309.971,168.267 309.907,168.101 309.841,167.935L309.808,167.849L309.769,167.751L309.721,167.631L309.594,167.309L309.562,167.23L309.526,167.14L309.405,166.841L309.355,166.717L309.313,166.613L309.278,166.528C309.212,166.366 309.145,166.204 309.078,166.042L309.06,165.998L309.011,165.879L308.921,165.663L308.853,165.502L308.804,165.384L308.775,165.316C308.708,165.157 308.641,164.998 308.573,164.84L308.544,164.772L308.492,164.651L308.423,164.491L308.336,164.289L308.281,164.162L308.259,164.113C308.191,163.956 308.123,163.8 308.054,163.644L308.014,163.554L307.964,163.441L307.913,163.326L307.798,163.069L307.744,162.948L307.694,162.838L307.566,162.553L307.521,162.455L307.471,162.344L307.425,162.244L307.39,162.168L307.227,161.814L307.194,161.741L307.128,161.601L307.035,161.399L306.974,161.271L306.913,161.141L306.874,161.057C306.804,160.909 306.734,160.761 306.664,160.613L306.63,160.542L306.561,160.399L306.491,160.253L306.414,160.093L306.343,159.945L306.311,159.88C306.241,159.735 306.17,159.591 306.099,159.447L306.052,159.35L305.986,159.216L305.935,159.113L305.838,158.919L305.758,158.757L305.682,158.606L305.557,158.358L305.522,158.288L305.461,158.167L305.4,158.047L305.367,157.981L305.243,157.74L305.16,157.578L305.069,157.402L304.981,157.23L304.932,157.137L304.857,156.991L304.803,156.888L304.786,156.856L304.598,156.498L304.549,156.406L304.457,156.232L304.392,156.11L304.331,155.995L304.239,155.823L304.193,155.738C304.123,155.608 304.053,155.478 303.982,155.347L303.925,155.242L303.837,155.08L303.791,154.997L303.718,154.864L303.608,154.663L303.482,154.435L303.384,154.26L303.362,154.22L303.288,154.086L303.206,153.94L303.179,153.892L303.097,153.748L302.964,153.511L302.833,153.281L302.764,153.159L302.732,153.104L302.638,152.939L302.564,152.811L302.554,152.794L302.482,152.669L302.308,152.368L302.18,152.151L302.131,152.067L302.091,151.999C301.902,151.676 301.711,151.354 301.518,151.034L301.487,150.982L301.444,150.91L301.298,150.669L301.073,150.299L301.051,150.263L301.051,150.263C297.822,144.982 294.174,139.985 290.152,135.319L290.152,135.319L290.151,135.318C289.989,135.13 289.827,134.943 289.664,134.756L289.662,134.755L289.654,134.745L289.26,134.296L289.196,134.224L289.169,134.193L289.085,134.098L288.825,133.806L288.724,133.693L288.672,133.635L288.582,133.536L288.388,133.319L288.245,133.162L288.171,133.08L288.094,132.996L287.947,132.834L287.756,132.627L287.666,132.528L287.61,132.468L287.504,132.352L287.249,132.078L287.158,131.98L287.126,131.946L287.058,131.872L286.682,131.473L286.647,131.435L286.641,131.429C286.472,131.251 286.303,131.072 286.132,130.894L286.132,130.894L286.128,130.89L285.704,130.449L285.641,130.385L285.613,130.356L285.521,130.262L285.247,129.98L285.146,129.877L285.091,129.821L284.994,129.722L284.788,129.513L284.644,129.369L284.566,129.29L284.482,129.206L284.325,129.049L284.132,128.858L284.037,128.762L283.974,128.7L283.861,128.588L283.604,128.336L283.504,128.238L283.467,128.202L283.393,128.129L283.021,127.768L282.968,127.717L282.959,127.708C282.613,127.374 282.264,127.042 281.914,126.712L281.886,126.686L281.79,126.596L281.497,126.321L281.396,126.227L281.34,126.175L281.236,126.079L281.017,125.876L280.871,125.743L280.791,125.669L280.701,125.587L280.534,125.434L280.338,125.256L280.238,125.165L280.17,125.105L280.049,124.994L279.787,124.761L279.682,124.666L279.641,124.629L279.56,124.557L279.187,124.227L279.123,124.17L279.111,124.159C278.749,123.841 278.386,123.525 278.02,123.212L277.994,123.189L277.898,123.107L277.583,122.838L277.48,122.751L277.425,122.704L277.317,122.613L277.082,122.415L276.933,122.291L276.853,122.223L276.758,122.144L276.579,121.995L276.378,121.829L276.277,121.745L276.205,121.686L276.074,121.578L275.806,121.36L275.698,121.271L275.654,121.235L275.566,121.164L275.187,120.858L275.116,120.801L275.102,120.79C274.726,120.488 274.347,120.188 273.967,119.891L273.943,119.872L273.852,119.801L273.51,119.535L273.405,119.454L273.352,119.413L273.243,119.33L272.99,119.136L272.837,119.019L272.757,118.958L272.661,118.885L272.468,118.739L272.26,118.583L272.16,118.507L272.086,118.452L271.943,118.345L271.667,118.14L271.559,118.06L271.513,118.026L271.416,117.954L271.028,117.669L270.956,117.617L270.94,117.605C270.549,117.32 270.155,117.036 269.759,116.755L269.74,116.741L269.659,116.685L269.285,116.42L269.177,116.345L269.127,116.31L269.02,116.236L268.746,116.044L268.588,115.936L268.512,115.882L268.414,115.815L268.205,115.671L267.991,115.525L267.893,115.458L267.818,115.407L267.662,115.301L267.377,115.109L267.272,115.038L267.224,115.007L267.117,114.935L266.717,114.669L266.647,114.623L266.631,114.612C266.224,114.343 265.815,114.077 265.405,113.813L265.39,113.803L265.326,113.762L264.913,113.498L264.802,113.428L264.757,113.4L264.655,113.335L264.357,113.147L264.194,113.046L264.121,113L264.025,112.941L263.798,112.799L263.576,112.663L263.483,112.604L263.408,112.559L263.238,112.454L262.941,112.274L262.841,112.213L262.794,112.185L262.675,112.112L262.261,111.864L262.197,111.826L262.181,111.817C261.759,111.565 261.335,111.315 260.909,111.069L260.901,111.064L260.86,111.04L260.402,110.777L260.288,110.712L260.248,110.689L260.154,110.636L259.829,110.451L259.661,110.357L259.593,110.318L259.5,110.267L259.254,110.129L259.024,110.001L258.935,109.952L258.862,109.912L258.676,109.809L258.369,109.642L258.275,109.59L258.228,109.565L258.097,109.493L257.668,109.263L257.612,109.232L257.597,109.224C257.16,108.99 256.721,108.759 256.28,108.53L256.278,108.529L256.267,108.524L255.758,108.262L255.64,108.202L255.607,108.184L255.523,108.142L255.169,107.962L254.994,107.875L254.933,107.844L254.845,107.8L254.577,107.666L254.339,107.548L254.257,107.508L254.186,107.473L253.984,107.373L253.665,107.218L253.578,107.176L253.533,107.154L253.388,107.084L252.945,106.871L252.897,106.848L252.884,106.842C252.215,106.523 251.542,106.211 250.866,105.904L250.839,105.892L250.769,105.861L250.382,105.687L250.202,105.607L250.148,105.582L250.066,105.547L249.776,105.418L249.529,105.31L249.454,105.277L249.386,105.248L249.167,105.152L248.837,105.01L248.758,104.976L248.716,104.958L248.556,104.89L248.099,104.697L248.06,104.68L248.048,104.675C247.359,104.386 246.667,104.103 245.97,103.826L245.951,103.819L245.897,103.797L245.476,103.631L245.291,103.559L245.243,103.541L245.169,103.512L244.855,103.39L244.6,103.293L244.533,103.267L244.47,103.243L244.232,103.152L243.891,103.025L243.821,102.998L243.781,102.984L243.607,102.918L243.137,102.746L243.106,102.734L243.097,102.731C242.388,102.472 241.677,102.219 240.962,101.974L240.949,101.97L240.913,101.958L240.457,101.802L240.266,101.738L240.226,101.724L240.16,101.703L239.822,101.589L239.56,101.504L239.5,101.484L239.441,101.465L239.185,101.381L238.835,101.268L238.772,101.248L238.735,101.236L238.546,101.176L238.065,101.024L238.042,101.017L238.035,101.014C237.308,100.787 236.579,100.567 235.845,100.354L235.84,100.352L235.824,100.348L235.33,100.205L235.135,100.15L235.102,100.141L235.045,100.125L234.682,100.022L234.415,99.948L234.362,99.934L234.307,99.919L234.032,99.843L233.675,99.747L233.619,99.731L233.585,99.722L233.381,99.668L232.892,99.539L232.875,99.534L232.869,99.533C231.886,99.276 230.898,99.032 229.905,98.801L229.878,98.795L229.83,98.784L229.442,98.695L229.171,98.633L229.124,98.623L229.074,98.612L228.781,98.546L228.418,98.466L228.368,98.455L228.336,98.448L228.118,98.401L227.622,98.296L227.61,98.293L227.606,98.292C226.602,98.081 225.594,97.883 224.581,97.698L224.56,97.694L224.521,97.687L224.109,97.613L223.835,97.565L223.793,97.557L223.747,97.55L223.436,97.495L223.069,97.433L223.024,97.426L222.994,97.421L222.762,97.382L222.263,97.301L222.254,97.299L222.25,97.299C221.228,97.134 220.202,96.984 219.171,96.847L219.155,96.845L219.123,96.841L218.689,96.784L218.413,96.749L218.376,96.744L218.333,96.739L218.006,96.698L217.637,96.654L217.595,96.649L217.566,96.646L217.321,96.617L216.822,96.56L216.813,96.559L216.809,96.559C215.77,96.443 214.728,96.341 213.68,96.254L213.668,96.253L213.643,96.251L213.188,96.213L212.912,96.192L212.878,96.189L212.837,96.186L212.495,96.16L212.127,96.135L212.087,96.132L212.057,96.13L211.8,96.112L211.305,96.08L211.293,96.079L211.289,96.079C210.235,96.013 209.177,95.961 208.116,95.925L208.107,95.924L208.087,95.924L207.612,95.908L207.339,95.9L207.306,95.899L207.265,95.898L206.91,95.888L206.546,95.881L206.505,95.88L206.474,95.879L206.207,95.873L205.718,95.866L205.702,95.866L205.695,95.866C205.161,95.858 204.627,95.854 204.092,95.854C203.73,95.854 203.368,95.856 203.006,95.86L202.946,95.86L202.914,95.861L202.681,95.863L202.419,95.867L202.374,95.867L202.313,95.868C201.587,95.879 200.863,95.897 200.141,95.922L200.094,95.924L200.076,95.924L199.871,95.931L199.579,95.943L199.525,95.945L199.47,95.947L199.171,95.959L198.972,95.968L198.958,95.969L198.915,95.971C198.366,95.995 197.818,96.024 197.271,96.056L197.259,96.057L197.256,96.057L197.079,96.067L196.754,96.088L196.694,96.092L196.648,96.095L196.383,96.112L196.159,96.127L196.13,96.129L196.071,96.134C195.36,96.183 194.651,96.239 193.944,96.302L193.882,96.307L193.847,96.311L193.614,96.331L193.364,96.355L193.322,96.359L193.259,96.365C192.552,96.432 191.847,96.505 191.144,96.585L191.089,96.591L191.067,96.594L190.863,96.617L190.587,96.649L190.533,96.656L190.474,96.663L190.179,96.698L189.992,96.721L189.978,96.723L189.934,96.729C189.405,96.795 188.876,96.864 188.35,96.937L188.317,96.942L188.308,96.943L188.133,96.967L187.829,97.011L187.765,97.02L187.713,97.027L187.453,97.065L187.244,97.096L187.214,97.1L187.149,97.11C186.46,97.213 185.773,97.323 185.088,97.438L185.018,97.45L184.976,97.457L184.748,97.495L184.517,97.536L184.471,97.544L184.401,97.556C183.72,97.675 183.041,97.8 182.364,97.931L182.294,97.945L182.263,97.951L182.065,97.989L181.811,98.04L181.751,98.052L181.683,98.066L181.398,98.123L181.227,98.158L181.21,98.161L181.154,98.173C180.652,98.276 180.152,98.382 179.653,98.492L179.592,98.505L179.574,98.509L179.405,98.546L179.126,98.608L179.055,98.624L178.992,98.639L178.743,98.695L178.552,98.739L178.518,98.746L178.44,98.765C177.939,98.88 177.439,98.999 176.941,99.122L176.915,99.128L176.909,99.129L176.767,99.164L176.464,99.24L176.382,99.26L176.329,99.274L176.112,99.328L175.901,99.382L175.85,99.395L175.766,99.417L175.458,99.496L175.323,99.531L175.32,99.532L175.301,99.537C174.807,99.666 174.315,99.798 173.824,99.934L173.734,99.959L173.692,99.97L173.505,100.022L173.274,100.087L173.208,100.106L173.125,100.129L172.857,100.205L172.704,100.249L172.682,100.255L172.604,100.278C172.135,100.413 171.668,100.551 171.202,100.692L171.112,100.719L171.082,100.728L170.923,100.776L170.673,100.853L170.591,100.878L170.515,100.902L170.281,100.974L170.11,101.028L170.07,101.04L169.972,101.071C169.511,101.216 169.052,101.364 168.594,101.515L168.516,101.54L168.499,101.546L168.366,101.589L168.097,101.68L168,101.712L167.934,101.734L167.731,101.802L167.543,101.866L167.485,101.886L167.383,101.921L167.098,102.018L166.98,102.059L166.972,102.062L166.916,102.081L166.466,102.238L165.973,102.412L165.948,102.422L165.945,102.423L165.836,102.461L165.546,102.566L165.437,102.605L165.383,102.625L165.208,102.688L165.004,102.763L164.928,102.791L164.83,102.827L164.582,102.918L164.448,102.969L164.42,102.979L164.312,103.019C163.881,103.181 163.45,103.345 163.022,103.511L162.903,103.557L162.861,103.574L162.713,103.631L162.492,103.718L162.4,103.755L162.309,103.791L162.093,103.876L161.944,103.936L161.897,103.955L161.775,104.004C161.356,104.172 160.938,104.343 160.521,104.517L160.398,104.568L160.369,104.58L160.246,104.631L160.01,104.731L159.9,104.777L159.82,104.811L159.633,104.89L159.469,104.961L159.404,104.988L159.281,105.041L159.023,105.152L158.922,105.196L158.909,105.202L158.804,105.248L158.415,105.418L158.034,105.586L157.922,105.636L157.907,105.643L157.808,105.687L157.557,105.8L157.431,105.856L157.363,105.887L157.203,105.959L157.024,106.041L156.941,106.079L156.825,106.132L156.6,106.235L156.485,106.289L156.452,106.304L156.309,106.37L155.999,106.515L155.493,106.754L155.478,106.761L155.477,106.761L155.4,106.797L155.135,106.924L154.993,106.992L154.938,107.019L154.803,107.084L154.611,107.177L154.509,107.226L154.403,107.278L154.207,107.373L154.078,107.437L154.026,107.462L153.878,107.535C153.499,107.723 153.121,107.912 152.744,108.104L152.586,108.184L152.546,108.205L152.433,108.262L152.229,108.367L152.109,108.429L152.016,108.477L151.846,108.565L151.703,108.639L151.633,108.676L151.491,108.751L151.26,108.871L151.176,108.916L151.158,108.925L150.994,109.012L150.677,109.18L150.384,109.338L150.212,109.43L150.186,109.444L150.096,109.493L149.881,109.611L149.741,109.686L149.662,109.73L149.516,109.809L149.361,109.895L149.272,109.944L149.141,110.017L148.939,110.129L148.841,110.184L148.804,110.204L148.626,110.304L148.364,110.451L148.054,110.627L147.872,110.731L147.86,110.737L147.79,110.777L147.566,110.906L147.408,110.997L147.343,111.035L147.219,111.106L147.053,111.203L146.945,111.266L146.827,111.335L146.65,111.438L146.539,111.504L146.484,111.536L146.313,111.638L146.083,111.774L146.027,111.808L146.024,111.809L145.809,111.938L145.519,112.112L145.289,112.252L145.109,112.361L145.058,112.392L144.956,112.454L144.78,112.563L144.653,112.64L144.549,112.705L144.395,112.799L144.273,112.876L144.199,112.921L144.04,113.021L143.837,113.147L143.767,113.191L143.746,113.205L143.519,113.348L143.281,113.498L143.051,113.645L142.845,113.777L142.809,113.8L142.727,113.853L142.542,113.972L142.396,114.067L142.307,114.125L142.175,114.21L142.041,114.298L141.949,114.358L141.805,114.453L141.625,114.571L141.543,114.626L141.503,114.652L141.295,114.791L141.078,114.935L140.873,115.073L140.617,115.245L140.596,115.259L140.533,115.301L140.342,115.431L140.175,115.545L140.102,115.595L139.99,115.671L139.846,115.771L139.736,115.846L139.608,115.935L139.449,116.044L139.354,116.11L139.298,116.15L139.108,116.282L138.911,116.42L138.866,116.452C138.717,116.557 138.568,116.662 138.42,116.767L138.375,116.799L138.182,116.937L137.992,117.073L137.934,117.114L137.841,117.181L137.688,117.292L137.56,117.384L137.448,117.465L137.309,117.566L137.203,117.644L137.129,117.698L136.959,117.823L136.78,117.954L136.722,117.997L136.7,118.013L136.409,118.229L136.253,118.345L136.067,118.485L135.846,118.65L135.804,118.682L135.729,118.739L135.569,118.86L135.422,118.971L135.327,119.044L135.207,119.136L135.09,119.225L134.999,119.295L134.848,119.411L134.687,119.535L134.617,119.59L134.578,119.62L134.345,119.801L134.169,119.938L134.018,120.057L133.739,120.276L133.712,120.298L133.654,120.344L133.489,120.475L133.323,120.607L133.245,120.67L133.142,120.752L133.015,120.854L132.908,120.94L132.775,121.047L132.631,121.164L132.55,121.23L132.494,121.275L132.294,121.439L132.123,121.578L132.087,121.608C131.945,121.725 131.802,121.842 131.66,121.96L131.618,121.995L131.452,122.134L131.263,122.291L131.201,122.343L131.115,122.415L130.981,122.529L130.856,122.633L130.742,122.73L130.615,122.838L130.522,122.917L130.451,122.977L130.276,123.127L130.117,123.264L130.068,123.306L130.047,123.324L129.697,123.626L129.621,123.692L129.462,123.832L129.245,124.021L129.199,124.062L129.128,124.123L128.987,124.249L128.846,124.373L128.749,124.459L128.638,124.557L128.535,124.65L128.449,124.726L128.297,124.863L128.15,124.994L128.089,125.049L128.053,125.082L127.809,125.303L127.664,125.434L127.534,125.553L127.267,125.798L127.237,125.826L127.182,125.876L127.035,126.012L126.877,126.158L126.798,126.232L126.701,126.321L126.589,126.427L126.488,126.521L126.357,126.645L126.224,126.769L126.152,126.837L126.101,126.885L125.9,127.076L125.748,127.22L125.719,127.248C125.584,127.377 125.45,127.505 125.316,127.634L125.276,127.673L125.127,127.818L124.95,127.989L124.887,128.05L124.806,128.129L124.685,128.248L124.57,128.36L124.458,128.471L124.339,128.588L124.256,128.67L124.191,128.734L124.021,128.903L123.874,129.049L123.832,129.091C123.701,129.222 123.57,129.354 123.439,129.486L123.412,129.513L123.266,129.661L123.067,129.864L123.02,129.911L122.953,129.98L122.824,130.112L122.695,130.244L122.601,130.341L122.496,130.449L122.403,130.545L122.325,130.626L122.179,130.778L122.042,130.921L121.989,130.977L121.957,131.009L121.718,131.261L121.591,131.395L121.462,131.532L121.227,131.782L121.196,131.815L121.142,131.872L121.007,132.018L120.864,132.171L120.788,132.253L120.696,132.352L120.594,132.463L120.504,132.561L120.379,132.697L120.253,132.834L120.189,132.905L120.145,132.953L119.955,133.162L119.813,133.319L119.783,133.352L119.432,133.743L119.416,133.761L119.375,133.806L119.235,133.964L119.079,134.14L119.019,134.207L118.94,134.296L118.829,134.423L118.727,134.539L118.622,134.658L118.508,134.789L118.433,134.875L118.377,134.939L118.219,135.121L118.079,135.283L118.042,135.327C117.921,135.467 117.801,135.607 117.681,135.748L117.653,135.781L117.511,135.948L117.339,136.15L117.295,136.202L117.229,136.281L117.109,136.424L116.997,136.557L116.91,136.661L116.808,136.783L116.723,136.886L116.656,136.966L116.523,137.127L116.39,137.288L116.342,137.347L116.317,137.376L116.102,137.64L115.975,137.795L115.838,137.964L115.646,138.202L115.617,138.238L115.563,138.304L115.435,138.464L115.313,138.617L115.243,138.704L115.154,138.817L115.058,138.937L114.982,139.033L114.87,139.176L114.747,139.331L114.688,139.407L114.653,139.452L114.486,139.665L114.344,139.848L114.239,139.984L114,140.293L113.985,140.312L113.943,140.367L113.808,140.545L113.677,140.716L113.623,140.787L113.545,140.889L113.441,141.028L113.355,141.14L113.262,141.264L113.151,141.413L113.081,141.507L113.036,141.567L112.899,141.751L112.759,141.939L112.724,141.986C112.616,142.132 112.509,142.279 112.401,142.426L112.37,142.468L112.228,142.663L112.089,142.854L112.05,142.907L111.984,142.999L111.87,143.157L111.777,143.286L111.702,143.392L111.601,143.532L111.521,143.645L111.468,143.72L111.354,143.881L111.222,144.067L111.176,144.132L111.16,144.155L110.99,144.398L110.845,144.605L110.696,144.821L110.551,145.03L110.526,145.066L110.471,145.145L110.348,145.326L110.249,145.47L110.189,145.558L110.1,145.688L110.01,145.821L109.949,145.911L109.855,146.052L109.733,146.232L109.677,146.317L109.652,146.354L109.52,146.552L109.368,146.779L109.21,147.019L109.062,147.244L109.051,147.261L109.007,147.328L108.874,147.533L108.771,147.691L108.726,147.76L108.648,147.88L108.549,148.035L108.481,148.139L108.404,148.261L108.293,148.433L108.227,148.537L108.194,148.589L108.085,148.762C107.871,149.1 107.659,149.439 107.448,149.779L107.344,149.948L107.312,149.999L107.246,150.107L107.137,150.286L107.065,150.403L107.002,150.506L106.903,150.669L106.827,150.795L106.787,150.86L106.697,151.011L106.563,151.233L106.52,151.306L106.512,151.319L106.412,151.487L106.227,151.8L106.068,152.07L105.969,152.24L105.95,152.272L105.894,152.368L105.775,152.573L105.7,152.703L105.652,152.786L105.564,152.939L105.479,153.088L105.433,153.167L105.359,153.298L105.237,153.511L105.184,153.605L105.169,153.632L105.079,153.791L104.913,154.086L104.724,154.428L104.646,154.567L104.639,154.58L104.593,154.663L104.464,154.899L104.388,155.036L104.353,155.101L104.276,155.242L104.182,155.416L104.132,155.507L104.072,155.62L103.962,155.823L103.9,155.939L103.879,155.979L103.801,156.125C103.599,156.504 103.4,156.884 103.202,157.266L103.13,157.404L103.107,157.449L103.04,157.578L102.937,157.78L102.885,157.881L102.838,157.975L102.74,158.167L102.669,158.307L102.642,158.36L102.577,158.49L102.443,158.757L102.402,158.84L102.402,158.84L102.398,158.848L102.149,159.35L101.987,159.681L101.927,159.804L101.914,159.83L101.858,159.945L101.745,160.179L101.693,160.288L101.657,160.363L101.571,160.542L101.492,160.709L101.461,160.773L101.407,160.887L101.287,161.141L101.238,161.246L101.231,161.26L101.189,161.35L101.007,161.741L100.805,162.179L100.779,162.236L100.776,162.243L100.729,162.344L100.606,162.615L100.556,162.726L100.531,162.782L100.456,162.948L100.369,163.143L100.335,163.218L100.292,163.315L100.186,163.554L100.128,163.685L100.117,163.711L100.072,163.813C99.885,164.238 99.701,164.664 99.52,165.092L99.475,165.196L99.46,165.233L99.396,165.384L99.301,165.611L99.266,165.693L99.233,165.773L99.139,165.998L99.075,166.155L99.059,166.192L99.019,166.291C98.837,166.733 98.658,167.176 98.482,167.621L98.452,167.695L98.445,167.713L98.391,167.849L98.288,168.113L98.254,168.199L98.23,168.261L98.149,168.47L98.077,168.656L98.059,168.703L98.025,168.793C96.136,173.718 94.58,178.808 93.384,184.036L93.289,184.455L93.285,184.474L93.272,184.531L93.221,184.762L93.165,185.012L93.149,185.088L93.125,185.193L93.084,185.385L93.044,185.571L93.015,185.706L92.983,185.857L92.953,186.002L92.925,186.131L92.884,186.33L92.844,186.523L92.825,186.619L92.81,186.692L92.753,186.976L92.71,187.19L92.701,187.235C92.662,187.431 92.623,187.628 92.585,187.825L92.579,187.858L92.541,188.058L92.479,188.381L92.467,188.446L92.452,188.528L92.417,188.719L92.375,188.946L92.352,189.071L92.329,189.199L92.302,189.352L92.273,189.512L92.24,189.702L92.21,189.871L92.191,189.978L92.174,190.079L92.128,190.35L92.095,190.545L92.085,190.603L92.077,190.647L92,191.119L91.983,191.22L91.964,191.344L91.893,191.786L91.886,191.836L91.876,191.896L91.847,192.086L91.806,192.356L91.789,192.466L91.773,192.574L91.749,192.736L91.721,192.928L91.696,193.102L91.674,193.253L91.657,193.373L91.639,193.501L91.604,193.751L91.578,193.934L91.569,194.006L91.559,194.074L91.508,194.457L91.487,194.615L91.484,194.638C91.457,194.844 91.431,195.05 91.405,195.256L91.4,195.298L91.378,195.478L91.339,195.8L91.328,195.892L91.317,195.982L91.297,196.153L91.271,196.377L91.253,196.533L91.238,196.668L91.223,196.801L91.206,196.955L91.182,197.184L91.163,197.354L91.154,197.442L91.144,197.534L91.11,197.867L91.092,198.042L91.088,198.081C91.067,198.29 91.047,198.499 91.027,198.708L91.025,198.731L91.011,198.882L90.975,199.275L90.969,199.349L90.962,199.421L90.947,199.598L90.925,199.857L90.914,199.994L90.904,200.113L90.892,200.259L90.878,200.44L90.862,200.647L90.849,200.805L90.842,200.908L90.833,201.024L90.812,201.322L90.799,201.499L90.795,201.554L90.791,201.609L90.756,202.139L90.753,202.194L90.753,202.194Z" style="fill:rgb(242,242,242);"/>
    </g>
</svg>
